<svg width="30" height="30" viewBox="0 0 30 30" fill="none" xmlns="http://www.w3.org/2000/svg"> <path d="M30 15C30 23.2843 23.2843 30 15 30C6.71573 30 0 23.2843 0 15C0 6.71573 6.71573 0 15 0C23.2843 0 30 6.71573 30 15Z" fill="url(#paint0_linear_22_2917)"/> <path fill-rule="evenodd" clip-rule="evenodd" d="M9.77024 9.96015L4.8916 12.779L4.80583 15.0366L5.1399 14.8204C5.6649 14.4808 14.4414 9.4471 14.6438 9.36948C14.7434 9.33132 15.8667 9.90219 17.1398 10.6382C18.413 11.3744 19.9019 12.2354 20.4486 12.5517L21.4426 13.1269L18.1914 15.0039C16.4032 16.0363 14.8622 16.8824 14.767 16.8843C14.6717 16.8862 13.5737 16.2979 12.3268 15.577C11.0798 14.8561 10.0273 14.2663 9.98767 14.2663C9.9482 14.2663 9.91646 14.7414 9.91733 15.3221L9.91864 16.378L12.211 17.6887C13.4717 18.4095 14.5826 19.02 14.6798 19.0454C14.7769 19.0707 17.1874 17.75 20.0365 16.1104L25.2167 13.1297L23.5736 12.178C18.8563 9.44564 14.7947 7.13098 14.7262 7.13593C14.6837 7.13884 12.4535 8.40977 9.77024 9.96015ZM20.0372 17.7105C17.3139 19.2811 14.9872 20.594 14.8667 20.6278C14.7465 20.6616 13.6651 20.1211 12.4638 19.4268C11.2627 18.7324 10.195 18.1311 10.0912 18.0903C9.94485 18.0331 9.91208 18.2525 9.94558 19.0654L9.98869 20.1146L14.7495 22.8637L23.3072 17.9387L23.3867 22.8497L25.2071 21.7756V18.3122C25.2071 16.4074 25.1581 14.8502 25.0979 14.8518C25.0378 14.8532 22.7605 16.1397 20.0372 17.7105Z" fill="white"/> <defs> <linearGradient id="paint0_linear_22_2917" x1="15" y1="0" x2="15" y2="30" gradientUnits="userSpaceOnUse"> <stop stop-color="#F43F5E"/> <stop offset="1" stop-color="#E11D48" stop-opacity="0.79"/> </linearGradient> </defs> </svg>